<?xml version="1.0" encoding="iso-8859-1"?>
<!-- Generator: Adobe Illustrator 19.0.0, SVG Export Plug-In . SVG Version: 6.00 Build 0)  -->
<svg version="1.1" id="Capa_1" xmlns="http://www.w3.org/2000/svg" xmlns:xlink="http://www.w3.org/1999/xlink" x="0px" y="0px"
	 viewBox="0 0 512 512" style="enable-background:new 0 0 512 512;" xml:space="preserve">
<circle style="fill:#FDE472;" cx="256" cy="256" r="256"/>
<path style="fill:#FDB500;" d="M512,256c0-14.926-1.292-29.549-3.743-43.775l-73.648-73.718c-7.509-8.01-16.904-13.525-27.64-15.483
	c-18.511-3.377-37.027,4.545-51.004,19.68C329.062,119.199,294.154,105,256,105s-73.062,14.199-99.966,37.704
	c-13.977-15.135-32.493-23.057-51.004-19.68c-32.693,5.964-52.978,44.888-45.307,86.94c3.408,18.682,11.763,34.828,22.861,46.488
	l20.129,20.155c3.99,39.449,24.373,75.658,52.105,102.403l131.226,131.225C413.269,495.36,512,387.219,512,256z"/>
<path style="fill:#CE7937;" d="M406.97,123.027c-18.511-3.376-37.027,4.545-51.004,19.68
	c-26.904-23.505-61.812-37.704-99.966-37.704s-73.062,14.199-99.966,37.704c-13.977-15.135-32.493-23.057-51.004-19.68
	c-32.693,5.963-52.978,44.888-45.307,86.94c5.216,28.596,22.02,51.26,42.518,60.97c5.041,83.399,84.219,153.83,153.758,153.83
	s148.717-70.431,153.759-153.83c20.498-9.711,37.302-32.374,42.518-60.97C459.947,167.915,439.663,128.991,406.97,123.027z"/>
<path style="fill:#984B04;" d="M452.28,209.97c-5.22,28.59-22.02,51.26-42.52,60.97c-5.04,83.4-84.22,153.83-153.76,153.83V105
	c38.15,0,73.06,14.2,99.97,37.71c13.97-15.14,32.49-23.06,51-19.68C439.66,128.99,459.95,167.92,452.28,209.97z"/>
<path style="fill:#FDD9A8;" d="M136.02,163.75c-19.14,24.3-31.38,54.53-33.65,87.58c-10.89-7.47-19.44-20.74-22.38-36.88
	c-5.05-27.66,8.29-53.26,29.79-57.18C118.95,155.6,128.12,158.14,136.02,163.75z"/>
<path style="fill:#FDB551;" d="M432.01,214.45c-2.94,16.14-11.49,29.41-22.38,36.88c-2.27-33.05-14.51-63.28-33.65-87.58
	c7.9-5.61,17.07-8.15,26.24-6.48C423.72,161.19,437.06,186.79,432.01,214.45z"/>
<path style="fill:#FDD9A8;" d="M382.28,229.418c0-39.565-32.074-71.639-71.639-71.639c-21.904,0-41.5,9.841-54.641,25.331
	c-13.141-15.49-32.736-25.331-54.641-25.331c-39.565,0-71.639,32.074-71.639,71.639c0,30.704,19.321,56.885,46.463,67.078
	c-1.085,5.304-1.656,10.796-1.656,16.42c0,44.996,36.476,81.472,81.472,81.472s81.472-36.476,81.472-81.472
	c0-5.625-0.57-11.116-1.655-16.42C362.959,286.303,382.28,260.122,382.28,229.418z"/>
<path style="fill:#FDB551;" d="M335.816,296.496c1.087,5.305,1.659,10.796,1.659,16.417c0,44.997-36.479,81.476-81.476,81.476
	V183.11c13.145-15.494,32.74-25.332,54.637-25.332c39.575,0,71.649,32.074,71.649,71.637
	C382.285,260.123,362.959,286.307,335.816,296.496z"/>
<circle style="fill:#56545B;" cx="212.09" cy="240.63" r="17.587"/>
<circle style="fill:#29292B;" cx="299.9" cy="240.63" r="17.587"/>
<ellipse transform="matrix(0.5257 -0.8507 0.8507 0.5257 -138.378 342.4575)" style="fill:#56545B;" cx="237.928" cy="295.327" rx="7.109" ry="12.089"/>
<ellipse transform="matrix(0.5257 0.8507 -0.8507 0.5257 381.244 -93.0735)" style="fill:#29292B;" cx="274.091" cy="295.364" rx="7.109" ry="12.089"/>
<rect x="218.91" y="332.07" style="fill:#56545B;" width="74.17" height="12.07"/>
<rect x="256" y="332.07" style="fill:#29292B;" width="37.09" height="12.07"/>
<g>
</g>
<g>
</g>
<g>
</g>
<g>
</g>
<g>
</g>
<g>
</g>
<g>
</g>
<g>
</g>
<g>
</g>
<g>
</g>
<g>
</g>
<g>
</g>
<g>
</g>
<g>
</g>
<g>
</g>
</svg>
